<svg preserveAspectRatio="none" width="100%" height="100%" overflow="visible" style="display: block;" viewBox="0 0 16 17" fill="none" xmlns="http://www.w3.org/2000/svg">
<g id="Group 1948754097">
<path id="Vector" d="M4 7H7V10H4V7Z" fill="var(--fill-0, #04316A)"/>
<path id="Vector_2" fill-rule="evenodd" clip-rule="evenodd" d="M5 0H3V1C2.20435 1 1.44129 1.31607 0.87868 1.87868C0.316071 2.44129 0 3.20435 0 4V14C0 14.7956 0.316071 15.5587 0.87868 16.1213C1.44129 16.6839 2.20435 17 3 17H13C13.7956 17 14.5587 16.6839 15.1213 16.1213C15.6839 15.5587 16 14.7956 16 14V4C16 3.20435 15.6839 2.44129 15.1213 1.87868C14.5587 1.31607 13.7956 1 13 1V0H11V1H5V0ZM2 14V5H14V14C14 14.2652 13.8946 14.5196 13.7071 14.7071C13.5196 14.8946 13.2652 15 13 15H3C2.73478 15 2.48043 14.8946 2.29289 14.7071C2.10536 14.5196 2 14.2652 2 14Z" fill="var(--fill-0, #04316A)"/>
</g>
</svg>
