<svg preserveAspectRatio="none" width="100%" height="100%" overflow="visible" style="display: block;" viewBox="0 0 176.667 10.6667" fill="none" xmlns="http://www.w3.org/2000/svg">
<path id="Vector 1419" d="M0 5.33333C0 8.27885 2.38781 10.6667 5.33333 10.6667C8.27885 10.6667 10.6667 8.27885 10.6667 5.33333C10.6667 2.38781 8.27885 0 5.33333 0C2.38781 0 0 2.38781 0 5.33333ZM166 5.33333C166 8.27885 168.388 10.6667 171.333 10.6667C174.279 10.6667 176.667 8.27885 176.667 5.33333C176.667 2.38781 174.279 0 171.333 0C168.388 0 166 2.38781 166 5.33333ZM5.33333 5.33333V6.33333C5.59271 6.33333 5.8517 6.33333 6.11032 6.33333C6.36893 6.33333 6.62717 6.33333 6.88503 6.33333C7.14289 6.33333 7.40036 6.33333 7.65746 6.33333C7.91456 6.33333 8.17128 6.33333 8.42763 6.33333C8.68397 6.33333 8.93994 6.33333 9.19552 6.33333C9.45111 6.33333 9.70632 6.33333 9.96116 6.33333C10.216 6.33333 10.4704 6.33333 10.7245 6.33333C10.9786 6.33333 11.2323 6.33333 11.4856 6.33333C11.739 6.33333 11.9919 6.33333 12.2445 6.33333C12.4971 6.33333 12.7493 6.33333 13.0011 6.33333C13.2529 6.33333 13.5044 6.33333 13.7554 6.33333C14.0065 6.33333 14.2572 6.33333 14.5076 6.33333C14.7579 6.33333 15.0078 6.33333 15.2574 6.33333C15.507 6.33333 15.7562 6.33333 16.005 6.33333C16.2539 6.33333 16.5023 6.33333 16.7504 6.33333C16.9985 6.33333 17.2462 6.33333 17.4936 6.33333C17.7409 6.33333 17.9879 6.33333 18.2345 6.33333C18.4811 6.33333 18.7273 6.33333 18.9732 6.33333C19.219 6.33333 19.4645 6.33333 19.7096 6.33333C19.9547 6.33333 20.1995 6.33333 20.4439 6.33333C20.6882 6.33333 20.9322 6.33333 21.1759 6.33333C21.4195 6.33333 21.6628 6.33333 21.9057 6.33333C22.1486 6.33333 22.3911 6.33333 22.6333 6.33333C22.8754 6.33333 23.1172 6.33333 23.3586 6.33333C23.6001 6.33333 23.8411 6.33333 24.0818 6.33333C24.3225 6.33333 24.5628 6.33333 24.8028 6.33333C25.0427 6.33333 25.2823 6.33333 25.5215 6.33333C25.7607 6.33333 25.9996 6.33333 26.2381 6.33333C26.4766 6.33333 26.7147 6.33333 26.9524 6.33333C27.1902 6.33333 27.4276 6.33333 27.6646 6.33333C27.9016 6.33333 28.1383 6.33333 28.3746 6.33333C28.6109 6.33333 28.8468 6.33333 29.0824 6.33333C29.3179 6.33333 29.5531 6.33333 29.788 6.33333C30.0228 6.33333 30.2573 6.33333 30.4914 6.33333C30.7255 6.33333 30.9592 6.33333 31.1926 6.33333C31.426 6.33333 31.659 6.33333 31.8917 6.33333C32.1244 6.33333 32.3567 6.33333 32.5886 6.33333C32.8205 6.33333 33.0521 6.33333 33.2833 6.33333C33.5145 6.33333 33.7454 6.33333 33.9759 6.33333C34.2064 6.33333 34.4365 6.33333 34.6663 6.33333C34.896 6.33333 35.1254 6.33333 35.3545 6.33333C35.5836 6.33333 35.8122 6.33333 36.0406 6.33333C36.2689 6.33333 36.4969 6.33333 36.7245 6.33333C36.9521 6.33333 37.1794 6.33333 37.4063 6.33333C37.6332 6.33333 37.8597 6.33333 38.0859 6.33333C38.3121 6.33333 38.5379 6.33333 38.7634 6.33333C38.9888 6.33333 39.2139 6.33333 39.4387 6.33333C39.6634 6.33333 39.8878 6.33333 40.1119 6.33333C40.3359 6.33333 40.5596 6.33333 40.7829 6.33333C41.0063 6.33333 41.2292 6.33333 41.4518 6.33333C41.6745 6.33333 41.8967 6.33333 42.1186 6.33333C42.3405 6.33333 42.5621 6.33333 42.7833 6.33333C43.0045 6.33333 43.2253 6.33333 43.4458 6.33333C43.6663 6.33333 43.8865 6.33333 44.1062 6.33333C44.326 6.33333 44.5455 6.33333 44.7645 6.33333C44.9836 6.33333 45.2023 6.33333 45.4207 6.33333C45.6391 6.33333 45.8571 6.33333 46.0748 6.33333C46.2924 6.33333 46.5098 6.33333 46.7267 6.33333C46.9437 6.33333 47.1603 6.33333 47.3766 6.33333C47.5928 6.33333 47.8087 6.33333 48.0243 6.33333C48.2399 6.33333 48.4551 6.33333 48.6699 6.33333C48.8848 6.33333 49.0993 6.33333 49.3135 6.33333C49.5276 6.33333 49.7415 6.33333 49.9549 6.33333C50.1684 6.33333 50.3815 6.33333 50.5943 6.33333C50.807 6.33333 51.0195 6.33333 51.2315 6.33333C51.4436 6.33333 51.6553 6.33333 51.8667 6.33333C52.0781 6.33333 52.2891 6.33333 52.4998 6.33333C52.7105 6.33333 52.9208 6.33333 53.1308 6.33333C53.3408 6.33333 53.5504 6.33333 53.7597 6.33333C53.969 6.33333 54.178 6.33333 54.3866 6.33333C54.5952 6.33333 54.8035 6.33333 55.0114 6.33333C55.2193 6.33333 55.4269 6.33333 55.6341 6.33333C55.8413 6.33333 56.0482 6.33333 56.2548 6.33333C56.4613 6.33333 56.6675 6.33333 56.8733 6.33333C57.0792 6.33333 57.2847 6.33333 57.4899 6.33333C57.695 6.33333 57.8999 6.33333 58.1043 6.33333C58.3088 6.33333 58.513 6.33333 58.7168 6.33333C58.9206 6.33333 59.124 6.33333 59.3271 6.33333C59.5302 6.33333 59.733 6.33333 59.9354 6.33333C60.1379 6.33333 60.34 6.33333 60.5417 6.33333C60.7435 6.33333 60.9449 6.33333 61.1459 6.33333C61.347 6.33333 61.5477 6.33333 61.7481 6.33333C61.9485 6.33333 62.1486 6.33333 62.3483 6.33333C62.548 6.33333 62.7474 6.33333 62.9464 6.33333C63.1454 6.33333 63.3441 6.33333 63.5425 6.33333C63.7409 6.33333 63.9389 6.33333 64.1366 6.33333C64.3342 6.33333 64.5316 6.33333 64.7286 6.33333C64.9256 6.33333 65.1223 6.33333 65.3186 6.33333C65.515 6.33333 65.711 6.33333 65.9066 6.33333C66.1023 6.33333 66.2976 6.33333 66.4926 6.33333C66.6876 6.33333 66.8823 6.33333 67.0766 6.33333C67.2709 6.33333 67.4649 6.33333 67.6585 6.33333C67.8522 6.33333 68.0455 6.33333 68.2385 6.33333C68.4315 6.33333 68.6241 6.33333 68.8164 6.33333C69.0088 6.33333 69.2007 6.33333 69.3924 6.33333C69.584 6.33333 69.7754 6.33333 69.9663 6.33333C70.1573 6.33333 70.348 6.33333 70.5383 6.33333C70.7286 6.33333 70.9186 6.33333 71.1083 6.33333C71.2979 6.33333 71.4873 6.33333 71.6763 6.33333C71.8652 6.33333 72.0539 6.33333 72.2422 6.33333C72.4306 6.33333 72.6186 6.33333 72.8062 6.33333C72.9939 6.33333 73.1813 6.33333 73.3683 6.33333C73.5553 6.33333 73.742 6.33333 73.9283 6.33333C74.1147 6.33333 74.3007 6.33333 74.4864 6.33333C74.6721 6.33333 74.8575 6.33333 75.0425 6.33333C75.2276 6.33333 75.4123 6.33333 75.5967 6.33333C75.781 6.33333 75.9651 6.33333 76.1488 6.33333C76.3326 6.33333 76.516 6.33333 76.699 6.33333C76.8821 6.33333 77.0649 6.33333 77.2473 6.33333C77.4297 6.33333 77.6118 6.33333 77.7936 6.33333C77.9754 6.33333 78.1568 6.33333 78.3379 6.33333C78.5191 6.33333 78.6999 6.33333 78.8803 6.33333C79.0608 6.33333 79.241 6.33333 79.4208 6.33333C79.6006 6.33333 79.7801 6.33333 79.9593 6.33333C80.1385 6.33333 80.3173 6.33333 80.4958 6.33333C80.6744 6.33333 80.8526 6.33333 81.0305 6.33333C81.2084 6.33333 81.3859 6.33333 81.5632 6.33333C81.7404 6.33333 81.9173 6.33333 82.0939 6.33333C82.2705 6.33333 82.4468 6.33333 82.6227 6.33333C82.7987 6.33333 82.9743 6.33333 83.1496 6.33333C83.3249 6.33333 83.4999 6.33333 83.6746 6.33333C83.8493 6.33333 84.0236 6.33333 84.1977 6.33333C84.3717 6.33333 84.5454 6.33333 84.7188 6.33333C84.8922 6.33333 85.0653 6.33333 85.238 6.33333C85.4108 6.33333 85.5832 6.33333 85.7553 6.33333C85.9275 6.33333 86.0993 6.33333 86.2707 6.33333C86.4422 6.33333 86.6134 6.33333 86.7842 6.33333C86.9551 6.33333 87.1256 6.33333 87.2958 6.33333C87.4661 6.33333 87.636 6.33333 87.8055 6.33333C87.9751 6.33333 88.1444 6.33333 88.3133 6.33333C88.4823 6.33333 88.6509 6.33333 88.8192 6.33333C88.9876 6.33333 89.1556 6.33333 89.3233 6.33333C89.4909 6.33333 89.6583 6.33333 89.8254 6.33333C89.9924 6.33333 90.1592 6.33333 90.3256 6.33333C90.4921 6.33333 90.6582 6.33333 90.824 6.33333C90.9898 6.33333 91.1553 6.33333 91.3205 6.33333C91.4856 6.33333 91.6505 6.33333 91.8151 6.33333C91.9796 6.33333 92.1439 6.33333 92.3078 6.33333C92.4717 6.33333 92.6353 6.33333 92.7987 6.33333C92.962 6.33333 93.125 6.33333 93.2876 6.33333C93.4503 6.33333 93.6127 6.33333 93.7748 6.33333C93.9368 6.33333 94.0986 6.33333 94.26 6.33333C94.4215 6.33333 94.5826 6.33333 94.7435 6.33333C94.9043 6.33333 95.0648 6.33333 95.225 6.33333C95.3852 6.33333 95.5451 6.33333 95.7047 6.33333C95.8643 6.33333 96.0236 6.33333 96.1826 6.33333C96.3416 6.33333 96.5002 6.33333 96.6586 6.33333C96.8169 6.33333 96.975 6.33333 97.1327 6.33333C97.2905 6.33333 97.4479 6.33333 97.6051 6.33333C97.7622 6.33333 97.919 6.33333 98.0756 6.33333C98.2321 6.33333 98.3883 6.33333 98.5442 6.33333C98.7001 6.33333 98.8557 6.33333 99.011 6.33333C99.1663 6.33333 99.3213 6.33333 99.476 6.33333C99.6307 6.33333 99.7851 6.33333 99.9392 6.33333C100.093 6.33333 100.247 6.33333 100.401 6.33333C100.554 6.33333 100.707 6.33333 100.86 6.33333C101.013 6.33333 101.166 6.33333 101.318 6.33333C101.47 6.33333 101.622 6.33333 101.774 6.33333C101.925 6.33333 102.077 6.33333 102.228 6.33333C102.379 6.33333 102.53 6.33333 102.68 6.33333C102.83 6.33333 102.981 6.33333 103.13 6.33333C103.28 6.33333 103.43 6.33333 103.579 6.33333C103.728 6.33333 103.877 6.33333 104.026 6.33333C104.175 6.33333 104.323 6.33333 104.471 6.33333C104.619 6.33333 104.767 6.33333 104.914 6.33333C105.062 6.33333 105.209 6.33333 105.356 6.33333C105.503 6.33333 105.649 6.33333 105.796 6.33333C105.942 6.33333 106.088 6.33333 106.234 6.33333C106.379 6.33333 106.525 6.33333 106.67 6.33333C106.815 6.33333 106.96 6.33333 107.104 6.33333C107.249 6.33333 107.393 6.33333 107.537 6.33333C107.681 6.33333 107.824 6.33333 107.967 6.33333C108.111 6.33333 108.254 6.33333 108.396 6.33333C108.539 6.33333 108.682 6.33333 108.824 6.33333C108.966 6.33333 109.108 6.33333 109.249 6.33333C109.391 6.33333 109.532 6.33333 109.673 6.33333C109.814 6.33333 109.955 6.33333 110.095 6.33333C110.235 6.33333 110.375 6.33333 110.515 6.33333C110.655 6.33333 110.795 6.33333 110.934 6.33333C111.073 6.33333 111.212 6.33333 111.35 6.33333C111.489 6.33333 111.627 6.33333 111.766 6.33333C111.904 6.33333 112.041 6.33333 112.179 6.33333C112.316 6.33333 112.453 6.33333 112.59 6.33333C112.727 6.33333 112.864 6.33333 113 6.33333C113.136 6.33333 113.272 6.33333 113.408 6.33333C113.544 6.33333 113.679 6.33333 113.814 6.33333C113.95 6.33333 114.084 6.33333 114.219 6.33333C114.354 6.33333 114.488 6.33333 114.622 6.33333C114.756 6.33333 114.89 6.33333 115.023 6.33333C115.156 6.33333 115.29 6.33333 115.422 6.33333C115.555 6.33333 115.688 6.33333 115.82 6.33333C115.952 6.33333 116.084 6.33333 116.216 6.33333C116.348 6.33333 116.479 6.33333 116.61 6.33333C116.742 6.33333 116.872 6.33333 117.003 6.33333C117.134 6.33333 117.264 6.33333 117.394 6.33333C117.524 6.33333 117.654 6.33333 117.783 6.33333C117.913 6.33333 118.042 6.33333 118.171 6.33333C118.299 6.33333 118.428 6.33333 118.556 6.33333C118.685 6.33333 118.813 6.33333 118.94 6.33333C119.068 6.33333 119.196 6.33333 119.323 6.33333C119.45 6.33333 119.577 6.33333 119.704 6.33333C119.83 6.33333 119.957 6.33333 120.083 6.33333C120.209 6.33333 120.334 6.33333 120.46 6.33333C120.585 6.33333 120.711 6.33333 120.836 6.33333C120.961 6.33333 121.085 6.33333 121.21 6.33333C121.334 6.33333 121.458 6.33333 121.582 6.33333C121.706 6.33333 121.829 6.33333 121.953 6.33333C122.076 6.33333 122.199 6.33333 122.322 6.33333C122.444 6.33333 122.567 6.33333 122.689 6.33333C122.811 6.33333 122.933 6.33333 123.055 6.33333C123.176 6.33333 123.298 6.33333 123.419 6.33333C123.54 6.33333 123.66 6.33333 123.781 6.33333C123.902 6.33333 124.022 6.33333 124.142 6.33333C124.262 6.33333 124.381 6.33333 124.501 6.33333C124.62 6.33333 124.739 6.33333 124.858 6.33333C124.977 6.33333 125.096 6.33333 125.214 6.33333C125.332 6.33333 125.45 6.33333 125.568 6.33333C125.686 6.33333 125.803 6.33333 125.921 6.33333C126.038 6.33333 126.155 6.33333 126.272 6.33333C126.388 6.33333 126.505 6.33333 126.621 6.33333C126.737 6.33333 126.853 6.33333 126.968 6.33333C127.084 6.33333 127.199 6.33333 127.314 6.33333C127.429 6.33333 127.544 6.33333 127.659 6.33333C127.773 6.33333 127.888 6.33333 128.002 6.33333C128.115 6.33333 128.229 6.33333 128.343 6.33333C128.456 6.33333 128.569 6.33333 128.682 6.33333C128.795 6.33333 128.908 6.33333 129.02 6.33333C129.132 6.33333 129.245 6.33333 129.356 6.33333C129.468 6.33333 129.58 6.33333 129.691 6.33333C129.802 6.33333 129.913 6.33333 130.024 6.33333C130.135 6.33333 130.246 6.33333 130.356 6.33333C130.466 6.33333 130.576 6.33333 130.686 6.33333C130.795 6.33333 130.905 6.33333 131.014 6.33333C131.123 6.33333 131.232 6.33333 131.341 6.33333C131.449 6.33333 131.558 6.33333 131.666 6.33333C131.774 6.33333 131.882 6.33333 131.989 6.33333C132.097 6.33333 132.204 6.33333 132.311 6.33333C132.419 6.33333 132.525 6.33333 132.632 6.33333C132.738 6.33333 132.845 6.33333 132.951 6.33333C133.057 6.33333 133.163 6.33333 133.268 6.33333C133.374 6.33333 133.479 6.33333 133.584 6.33333C133.689 6.33333 133.793 6.33333 133.898 6.33333C134.002 6.33333 134.107 6.33333 134.21 6.33333C134.314 6.33333 134.418 6.33333 134.522 6.33333C134.625 6.33333 134.728 6.33333 134.831 6.33333C134.934 6.33333 135.037 6.33333 135.139 6.33333C135.241 6.33333 135.343 6.33333 135.445 6.33333C135.547 6.33333 135.649 6.33333 135.75 6.33333C135.851 6.33333 135.953 6.33333 136.053 6.33333C136.154 6.33333 136.255 6.33333 136.355 6.33333C136.455 6.33333 136.555 6.33333 136.655 6.33333C136.755 6.33333 136.855 6.33333 136.954 6.33333C137.053 6.33333 137.152 6.33333 137.251 6.33333C137.35 6.33333 137.448 6.33333 137.547 6.33333C137.645 6.33333 137.743 6.33333 137.841 6.33333C137.939 6.33333 138.036 6.33333 138.133 6.33333C138.231 6.33333 138.328 6.33333 138.424 6.33333C138.521 6.33333 138.618 6.33333 138.714 6.33333C138.81 6.33333 138.906 6.33333 139.002 6.33333C139.098 6.33333 139.193 6.33333 139.288 6.33333C139.384 6.33333 139.479 6.33333 139.573 6.33333C139.668 6.33333 139.763 6.33333 139.857 6.33333C139.951 6.33333 140.045 6.33333 140.139 6.33333C140.233 6.33333 140.326 6.33333 140.419 6.33333C140.513 6.33333 140.606 6.33333 140.698 6.33333C140.791 6.33333 140.884 6.33333 140.976 6.33333C141.068 6.33333 141.16 6.33333 141.252 6.33333C141.344 6.33333 141.435 6.33333 141.526 6.33333C141.618 6.33333 141.709 6.33333 141.799 6.33333C141.89 6.33333 141.981 6.33333 142.071 6.33333C142.161 6.33333 142.251 6.33333 142.341 6.33333C142.431 6.33333 142.52 6.33333 142.61 6.33333C142.699 6.33333 142.788 6.33333 142.877 6.33333C142.966 6.33333 143.054 6.33333 143.142 6.33333C143.231 6.33333 143.319 6.33333 143.407 6.33333C143.494 6.33333 143.582 6.33333 143.669 6.33333C143.757 6.33333 143.844 6.33333 143.931 6.33333C144.017 6.33333 144.104 6.33333 144.19 6.33333C144.277 6.33333 144.363 6.33333 144.449 6.33333C144.535 6.33333 144.62 6.33333 144.706 6.33333C144.791 6.33333 144.876 6.33333 144.961 6.33333C145.046 6.33333 145.131 6.33333 145.215 6.33333C145.3 6.33333 145.384 6.33333 145.468 6.33333C145.552 6.33333 145.635 6.33333 145.719 6.33333C145.802 6.33333 145.885 6.33333 145.968 6.33333C146.051 6.33333 146.134 6.33333 146.217 6.33333C146.299 6.33333 146.381 6.33333 146.464 6.33333C146.546 6.33333 146.627 6.33333 146.709 6.33333C146.79 6.33333 146.872 6.33333 146.953 6.33333C147.034 6.33333 147.115 6.33333 147.195 6.33333C147.276 6.33333 147.356 6.33333 147.437 6.33333C147.517 6.33333 147.597 6.33333 147.676 6.33333C147.756 6.33333 147.835 6.33333 147.915 6.33333C147.994 6.33333 148.073 6.33333 148.151 6.33333C148.23 6.33333 148.309 6.33333 148.387 6.33333C148.465 6.33333 148.543 6.33333 148.621 6.33333C148.699 6.33333 148.776 6.33333 148.854 6.33333C148.931 6.33333 149.008 6.33333 149.085 6.33333C149.162 6.33333 149.239 6.33333 149.315 6.33333C149.391 6.33333 149.467 6.33333 149.543 6.33333C149.619 6.33333 149.695 6.33333 149.771 6.33333C149.846 6.33333 149.921 6.33333 149.996 6.33333C150.071 6.33333 150.146 6.33333 150.221 6.33333C150.295 6.33333 150.369 6.33333 150.444 6.33333C150.518 6.33333 150.591 6.33333 150.665 6.33333C150.739 6.33333 150.812 6.33333 150.885 6.33333C150.958 6.33333 151.031 6.33333 151.104 6.33333C151.177 6.33333 151.249 6.33333 151.322 6.33333C151.394 6.33333 151.466 6.33333 151.538 6.33333C151.61 6.33333 151.681 6.33333 151.752 6.33333C151.824 6.33333 151.895 6.33333 151.966 6.33333C152.037 6.33333 152.107 6.33333 152.178 6.33333C152.248 6.33333 152.319 6.33333 152.389 6.33333C152.459 6.33333 152.528 6.33333 152.598 6.33333C152.667 6.33333 152.737 6.33333 152.806 6.33333C152.875 6.33333 152.944 6.33333 153.012 6.33333C153.081 6.33333 153.149 6.33333 153.218 6.33333C153.286 6.33333 153.354 6.33333 153.422 6.33333C153.489 6.33333 153.557 6.33333 153.624 6.33333C153.692 6.33333 153.759 6.33333 153.826 6.33333C153.892 6.33333 153.959 6.33333 154.025 6.33333C154.092 6.33333 154.158 6.33333 154.224 6.33333C154.29 6.33333 154.356 6.33333 154.421 6.33333C154.487 6.33333 154.552 6.33333 154.617 6.33333C154.682 6.33333 154.747 6.33333 154.812 6.33333C154.877 6.33333 154.941 6.33333 155.005 6.33333C155.07 6.33333 155.134 6.33333 155.197 6.33333C155.261 6.33333 155.325 6.33333 155.388 6.33333C155.451 6.33333 155.515 6.33333 155.578 6.33333C155.64 6.33333 155.703 6.33333 155.766 6.33333C155.828 6.33333 155.89 6.33333 155.952 6.33333C156.015 6.33333 156.076 6.33333 156.138 6.33333C156.2 6.33333 156.261 6.33333 156.322 6.33333C156.383 6.33333 156.444 6.33333 156.505 6.33333C156.566 6.33333 156.626 6.33333 156.687 6.33333C156.747 6.33333 156.807 6.33333 156.867 6.33333C156.927 6.33333 156.987 6.33333 157.046 6.33333C157.106 6.33333 157.165 6.33333 157.224 6.33333C157.283 6.33333 157.342 6.33333 157.4 6.33333C157.459 6.33333 157.518 6.33333 157.576 6.33333C157.634 6.33333 157.692 6.33333 157.75 6.33333C157.807 6.33333 157.865 6.33333 157.922 6.33333C157.98 6.33333 158.037 6.33333 158.094 6.33333C158.151 6.33333 158.208 6.33333 158.264 6.33333C158.321 6.33333 158.377 6.33333 158.433 6.33333C158.489 6.33333 158.545 6.33333 158.601 6.33333C158.656 6.33333 158.712 6.33333 158.767 6.33333C158.822 6.33333 158.877 6.33333 158.932 6.33333C158.987 6.33333 159.042 6.33333 159.096 6.33333C159.151 6.33333 159.205 6.33333 159.259 6.33333C159.313 6.33333 159.367 6.33333 159.42 6.33333C159.474 6.33333 159.527 6.33333 159.58 6.33333C159.634 6.33333 159.687 6.33333 159.739 6.33333C159.792 6.33333 159.845 6.33333 159.897 6.33333C159.949 6.33333 160.002 6.33333 160.054 6.33333C160.106 6.33333 160.157 6.33333 160.209 6.33333C160.26 6.33333 160.312 6.33333 160.363 6.33333C160.414 6.33333 160.465 6.33333 160.516 6.33333C160.566 6.33333 160.617 6.33333 160.667 6.33333C160.718 6.33333 160.768 6.33333 160.818 6.33333C160.868 6.33333 160.917 6.33333 160.967 6.33333C161.016 6.33333 161.066 6.33333 161.115 6.33333C161.164 6.33333 161.213 6.33333 161.262 6.33333C161.31 6.33333 161.359 6.33333 161.407 6.33333C161.456 6.33333 161.504 6.33333 161.552 6.33333C161.6 6.33333 161.647 6.33333 161.695 6.33333C161.742 6.33333 161.79 6.33333 161.837 6.33333C161.884 6.33333 161.931 6.33333 161.978 6.33333C162.024 6.33333 162.071 6.33333 162.117 6.33333C162.164 6.33333 162.21 6.33333 162.256 6.33333C162.302 6.33333 162.347 6.33333 162.393 6.33333C162.438 6.33333 162.484 6.33333 162.529 6.33333C162.574 6.33333 162.619 6.33333 162.664 6.33333C162.709 6.33333 162.753 6.33333 162.798 6.33333C162.842 6.33333 162.886 6.33333 162.93 6.33333C162.974 6.33333 163.018 6.33333 163.061 6.33333C163.105 6.33333 163.148 6.33333 163.192 6.33333C163.235 6.33333 163.278 6.33333 163.321 6.33333C163.364 6.33333 163.406 6.33333 163.449 6.33333C163.491 6.33333 163.533 6.33333 163.575 6.33333C163.617 6.33333 163.659 6.33333 163.701 6.33333C163.743 6.33333 163.784 6.33333 163.825 6.33333C163.867 6.33333 163.908 6.33333 163.949 6.33333C163.99 6.33333 164.03 6.33333 164.071 6.33333C164.111 6.33333 164.152 6.33333 164.192 6.33333C164.232 6.33333 164.272 6.33333 164.312 6.33333C164.351 6.33333 164.391 6.33333 164.43 6.33333C164.47 6.33333 164.509 6.33333 164.548 6.33333C164.587 6.33333 164.626 6.33333 164.665 6.33333C164.703 6.33333 164.742 6.33333 164.78 6.33333C164.818 6.33333 164.856 6.33333 164.894 6.33333C164.932 6.33333 164.97 6.33333 165.007 6.33333C165.045 6.33333 165.082 6.33333 165.119 6.33333C165.156 6.33333 165.193 6.33333 165.23 6.33333C165.267 6.33333 165.304 6.33333 165.34 6.33333C165.376 6.33333 165.413 6.33333 165.449 6.33333C165.485 6.33333 165.521 6.33333 165.556 6.33333C165.592 6.33333 165.627 6.33333 165.663 6.33333C165.698 6.33333 165.733 6.33333 165.768 6.33333C165.803 6.33333 165.838 6.33333 165.872 6.33333C165.907 6.33333 165.941 6.33333 165.975 6.33333C166.01 6.33333 166.044 6.33333 166.078 6.33333C166.111 6.33333 166.145 6.33333 166.179 6.33333C166.212 6.33333 166.245 6.33333 166.278 6.33333C166.312 6.33333 166.345 6.33333 166.377 6.33333C166.41 6.33333 166.443 6.33333 166.475 6.33333C166.507 6.33333 166.54 6.33333 166.572 6.33333C166.604 6.33333 166.636 6.33333 166.667 6.33333C166.699 6.33333 166.731 6.33333 166.762 6.33333C166.793 6.33333 166.824 6.33333 166.855 6.33333C166.886 6.33333 166.917 6.33333 166.948 6.33333C166.978 6.33333 167.009 6.33333 167.039 6.33333C167.069 6.33333 167.1 6.33333 167.129 6.33333C167.159 6.33333 167.189 6.33333 167.219 6.33333C167.248 6.33333 167.278 6.33333 167.307 6.33333C167.336 6.33333 167.365 6.33333 167.394 6.33333C167.423 6.33333 167.452 6.33333 167.48 6.33333C167.509 6.33333 167.537 6.33333 167.565 6.33333C167.593 6.33333 167.621 6.33333 167.649 6.33333C167.677 6.33333 167.705 6.33333 167.732 6.33333C167.76 6.33333 167.787 6.33333 167.814 6.33333C167.841 6.33333 167.868 6.33333 167.895 6.33333C167.922 6.33333 167.949 6.33333 167.975 6.33333C168.002 6.33333 168.028 6.33333 168.054 6.33333C168.08 6.33333 168.106 6.33333 168.132 6.33333C168.158 6.33333 168.183 6.33333 168.209 6.33333C168.234 6.33333 168.259 6.33333 168.284 6.33333C168.31 6.33333 168.334 6.33333 168.359 6.33333C168.384 6.33333 168.409 6.33333 168.433 6.33333C168.457 6.33333 168.482 6.33333 168.506 6.33333C168.53 6.33333 168.554 6.33333 168.578 6.33333C168.601 6.33333 168.625 6.33333 168.648 6.33333C168.672 6.33333 168.695 6.33333 168.718 6.33333C168.741 6.33333 168.764 6.33333 168.787 6.33333C168.81 6.33333 168.832 6.33333 168.855 6.33333C168.877 6.33333 168.9 6.33333 168.922 6.33333C168.944 6.33333 168.966 6.33333 168.987 6.33333C169.009 6.33333 169.031 6.33333 169.052 6.33333C169.074 6.33333 169.095 6.33333 169.116 6.33333C169.137 6.33333 169.158 6.33333 169.179 6.33333C169.2 6.33333 169.22 6.33333 169.241 6.33333C169.261 6.33333 169.282 6.33333 169.302 6.33333C169.322 6.33333 169.342 6.33333 169.362 6.33333C169.382 6.33333 169.401 6.33333 169.421 6.33333C169.44 6.33333 169.46 6.33333 169.479 6.33333C169.498 6.33333 169.517 6.33333 169.536 6.33333C169.555 6.33333 169.574 6.33333 169.592 6.33333C169.611 6.33333 169.629 6.33333 169.647 6.33333C169.666 6.33333 169.684 6.33333 169.702 6.33333C169.72 6.33333 169.737 6.33333 169.755 6.33333C169.773 6.33333 169.79 6.33333 169.807 6.33333C169.825 6.33333 169.842 6.33333 169.859 6.33333C169.876 6.33333 169.892 6.33333 169.909 6.33333C169.926 6.33333 169.942 6.33333 169.959 6.33333C169.975 6.33333 169.991 6.33333 170.007 6.33333C170.023 6.33333 170.039 6.33333 170.055 6.33333C170.071 6.33333 170.086 6.33333 170.102 6.33333C170.117 6.33333 170.132 6.33333 170.148 6.33333C170.163 6.33333 170.178 6.33333 170.192 6.33333C170.207 6.33333 170.222 6.33333 170.236 6.33333C170.251 6.33333 170.265 6.33333 170.279 6.33333C170.294 6.33333 170.308 6.33333 170.322 6.33333C170.336 6.33333 170.349 6.33333 170.363 6.33333C170.376 6.33333 170.39 6.33333 170.403 6.33333C170.417 6.33333 170.43 6.33333 170.443 6.33333C170.456 6.33333 170.469 6.33333 170.481 6.33333C170.494 6.33333 170.506 6.33333 170.519 6.33333C170.531 6.33333 170.544 6.33333 170.556 6.33333C170.568 6.33333 170.58 6.33333 170.591 6.33333C170.603 6.33333 170.615 6.33333 170.626 6.33333C170.638 6.33333 170.649 6.33333 170.661 6.33333C170.672 6.33333 170.683 6.33333 170.694 6.33333C170.705 6.33333 170.715 6.33333 170.726 6.33333C170.737 6.33333 170.747 6.33333 170.758 6.33333C170.768 6.33333 170.778 6.33333 170.788 6.33333C170.798 6.33333 170.808 6.33333 170.818 6.33333C170.828 6.33333 170.837 6.33333 170.847 6.33333C170.856 6.33333 170.865 6.33333 170.875 6.33333C170.884 6.33333 170.893 6.33333 170.902 6.33333C170.911 6.33333 170.919 6.33333 170.928 6.33333C170.937 6.33333 170.945 6.33333 170.953 6.33333C170.962 6.33333 170.97 6.33333 170.978 6.33333C170.986 6.33333 170.994 6.33333 171.002 6.33333C171.009 6.33333 171.017 6.33333 171.025 6.33333C171.032 6.33333 171.039 6.33333 171.047 6.33333C171.054 6.33333 171.061 6.33333 171.068 6.33333C171.075 6.33333 171.082 6.33333 171.088 6.33333C171.095 6.33333 171.101 6.33333 171.108 6.33333C171.114 6.33333 171.12 6.33333 171.126 6.33333C171.132 6.33333 171.138 6.33333 171.144 6.33333C171.15 6.33333 171.156 6.33333 171.161 6.33333C171.167 6.33333 171.172 6.33333 171.177 6.33333C171.183 6.33333 171.188 6.33333 171.193 6.33333C171.198 6.33333 171.203 6.33333 171.207 6.33333C171.212 6.33333 171.217 6.33333 171.221 6.33333C171.226 6.33333 171.23 6.33333 171.234 6.33333C171.238 6.33333 171.242 6.33333 171.246 6.33333C171.25 6.33333 171.254 6.33333 171.258 6.33333C171.261 6.33333 171.265 6.33333 171.268 6.33333C171.271 6.33333 171.275 6.33333 171.278 6.33333C171.281 6.33333 171.284 6.33333 171.287 6.33333C171.29 6.33333 171.292 6.33333 171.295 6.33333C171.297 6.33333 171.3 6.33333 171.302 6.33333C171.305 6.33333 171.307 6.33333 171.309 6.33333C171.311 6.33333 171.313 6.33333 171.315 6.33333C171.316 6.33333 171.318 6.33333 171.32 6.33333C171.321 6.33333 171.322 6.33333 171.324 6.33333C171.325 6.33333 171.326 6.33333 171.327 6.33333C171.328 6.33333 171.329 6.33333 171.33 6.33333C171.331 6.33333 171.331 6.33333 171.332 6.33333C171.332 6.33333 171.333 6.33333 171.333 6.33333C171.333 6.33333 171.333 6.33333 171.333 5.33333C171.333 4.33333 171.333 4.33333 171.333 4.33333C171.333 4.33333 171.332 4.33333 171.332 4.33333C171.331 4.33333 171.331 4.33333 171.33 4.33333C171.329 4.33333 171.328 4.33333 171.327 4.33333C171.326 4.33333 171.325 4.33333 171.324 4.33333C171.322 4.33333 171.321 4.33333 171.32 4.33333C171.318 4.33333 171.316 4.33333 171.315 4.33333C171.313 4.33333 171.311 4.33333 171.309 4.33333C171.307 4.33333 171.305 4.33333 171.302 4.33333C171.3 4.33333 171.297 4.33333 171.295 4.33333C171.292 4.33333 171.29 4.33333 171.287 4.33333C171.284 4.33333 171.281 4.33333 171.278 4.33333C171.275 4.33333 171.271 4.33333 171.268 4.33333C171.265 4.33333 171.261 4.33333 171.258 4.33333C171.254 4.33333 171.25 4.33333 171.246 4.33333C171.242 4.33333 171.238 4.33333 171.234 4.33333C171.23 4.33333 171.226 4.33333 171.221 4.33333C171.217 4.33333 171.212 4.33333 171.207 4.33333C171.203 4.33333 171.198 4.33333 171.193 4.33333C171.188 4.33333 171.183 4.33333 171.177 4.33333C171.172 4.33333 171.167 4.33333 171.161 4.33333C171.156 4.33333 171.15 4.33333 171.144 4.33333C171.138 4.33333 171.132 4.33333 171.126 4.33333C171.12 4.33333 171.114 4.33333 171.108 4.33333C171.101 4.33333 171.095 4.33333 171.088 4.33333C171.082 4.33333 171.075 4.33333 171.068 4.33333C171.061 4.33333 171.054 4.33333 171.047 4.33333C171.039 4.33333 171.032 4.33333 171.025 4.33333C171.017 4.33333 171.009 4.33333 171.002 4.33333C170.994 4.33333 170.986 4.33333 170.978 4.33333C170.97 4.33333 170.962 4.33333 170.953 4.33333C170.945 4.33333 170.937 4.33333 170.928 4.33333C170.919 4.33333 170.911 4.33333 170.902 4.33333C170.893 4.33333 170.884 4.33333 170.875 4.33333C170.865 4.33333 170.856 4.33333 170.847 4.33333C170.837 4.33333 170.828 4.33333 170.818 4.33333C170.808 4.33333 170.798 4.33333 170.788 4.33333C170.778 4.33333 170.768 4.33333 170.758 4.33333C170.747 4.33333 170.737 4.33333 170.726 4.33333C170.715 4.33333 170.705 4.33333 170.694 4.33333C170.683 4.33333 170.672 4.33333 170.661 4.33333C170.649 4.33333 170.638 4.33333 170.626 4.33333C170.615 4.33333 170.603 4.33333 170.591 4.33333C170.58 4.33333 170.568 4.33333 170.556 4.33333C170.544 4.33333 170.531 4.33333 170.519 4.33333C170.506 4.33333 170.494 4.33333 170.481 4.33333C170.469 4.33333 170.456 4.33333 170.443 4.33333C170.43 4.33333 170.417 4.33333 170.403 4.33333C170.39 4.33333 170.376 4.33333 170.363 4.33333C170.349 4.33333 170.336 4.33333 170.322 4.33333C170.308 4.33333 170.294 4.33333 170.279 4.33333C170.265 4.33333 170.251 4.33333 170.236 4.33333C170.222 4.33333 170.207 4.33333 170.192 4.33333C170.178 4.33333 170.163 4.33333 170.148 4.33333C170.132 4.33333 170.117 4.33333 170.102 4.33333C170.086 4.33333 170.071 4.33333 170.055 4.33333C170.039 4.33333 170.023 4.33333 170.007 4.33333C169.991 4.33333 169.975 4.33333 169.959 4.33333C169.942 4.33333 169.926 4.33333 169.909 4.33333C169.892 4.33333 169.876 4.33333 169.859 4.33333C169.842 4.33333 169.825 4.33333 169.807 4.33333C169.79 4.33333 169.773 4.33333 169.755 4.33333C169.737 4.33333 169.72 4.33333 169.702 4.33333C169.684 4.33333 169.666 4.33333 169.647 4.33333C169.629 4.33333 169.611 4.33333 169.592 4.33333C169.574 4.33333 169.555 4.33333 169.536 4.33333C169.517 4.33333 169.498 4.33333 169.479 4.33333C169.46 4.33333 169.44 4.33333 169.421 4.33333C169.401 4.33333 169.382 4.33333 169.362 4.33333C169.342 4.33333 169.322 4.33333 169.302 4.33333C169.282 4.33333 169.261 4.33333 169.241 4.33333C169.22 4.33333 169.2 4.33333 169.179 4.33333C169.158 4.33333 169.137 4.33333 169.116 4.33333C169.095 4.33333 169.074 4.33333 169.052 4.33333C169.031 4.33333 169.009 4.33333 168.987 4.33333C168.966 4.33333 168.944 4.33333 168.922 4.33333C168.9 4.33333 168.877 4.33333 168.855 4.33333C168.832 4.33333 168.81 4.33333 168.787 4.33333C168.764 4.33333 168.741 4.33333 168.718 4.33333C168.695 4.33333 168.672 4.33333 168.648 4.33333C168.625 4.33333 168.601 4.33333 168.578 4.33333C168.554 4.33333 168.53 4.33333 168.506 4.33333C168.482 4.33333 168.457 4.33333 168.433 4.33333C168.409 4.33333 168.384 4.33333 168.359 4.33333C168.334 4.33333 168.31 4.33333 168.284 4.33333C168.259 4.33333 168.234 4.33333 168.209 4.33333C168.183 4.33333 168.158 4.33333 168.132 4.33333C168.106 4.33333 168.08 4.33333 168.054 4.33333C168.028 4.33333 168.002 4.33333 167.975 4.33333C167.949 4.33333 167.922 4.33333 167.895 4.33333C167.868 4.33333 167.841 4.33333 167.814 4.33333C167.787 4.33333 167.76 4.33333 167.732 4.33333C167.705 4.33333 167.677 4.33333 167.649 4.33333C167.621 4.33333 167.593 4.33333 167.565 4.33333C167.537 4.33333 167.509 4.33333 167.48 4.33333C167.452 4.33333 167.423 4.33333 167.394 4.33333C167.365 4.33333 167.336 4.33333 167.307 4.33333C167.278 4.33333 167.248 4.33333 167.219 4.33333C167.189 4.33333 167.159 4.33333 167.129 4.33333C167.1 4.33333 167.069 4.33333 167.039 4.33333C167.009 4.33333 166.978 4.33333 166.948 4.33333C166.917 4.33333 166.886 4.33333 166.855 4.33333C166.824 4.33333 166.793 4.33333 166.762 4.33333C166.731 4.33333 166.699 4.33333 166.667 4.33333C166.636 4.33333 166.604 4.33333 166.572 4.33333C166.54 4.33333 166.507 4.33333 166.475 4.33333C166.443 4.33333 166.41 4.33333 166.377 4.33333C166.345 4.33333 166.312 4.33333 166.278 4.33333C166.245 4.33333 166.212 4.33333 166.179 4.33333C166.145 4.33333 166.111 4.33333 166.078 4.33333C166.044 4.33333 166.01 4.33333 165.975 4.33333C165.941 4.33333 165.907 4.33333 165.872 4.33333C165.838 4.33333 165.803 4.33333 165.768 4.33333C165.733 4.33333 165.698 4.33333 165.663 4.33333C165.627 4.33333 165.592 4.33333 165.556 4.33333C165.521 4.33333 165.485 4.33333 165.449 4.33333C165.413 4.33333 165.376 4.33333 165.34 4.33333C165.304 4.33333 165.267 4.33333 165.23 4.33333C165.193 4.33333 165.156 4.33333 165.119 4.33333C165.082 4.33333 165.045 4.33333 165.007 4.33333C164.97 4.33333 164.932 4.33333 164.894 4.33333C164.856 4.33333 164.818 4.33333 164.78 4.33333C164.742 4.33333 164.703 4.33333 164.665 4.33333C164.626 4.33333 164.587 4.33333 164.548 4.33333C164.509 4.33333 164.47 4.33333 164.43 4.33333C164.391 4.33333 164.351 4.33333 164.312 4.33333C164.272 4.33333 164.232 4.33333 164.192 4.33333C164.152 4.33333 164.111 4.33333 164.071 4.33333C164.03 4.33333 163.99 4.33333 163.949 4.33333C163.908 4.33333 163.867 4.33333 163.825 4.33333C163.784 4.33333 163.743 4.33333 163.701 4.33333C163.659 4.33333 163.617 4.33333 163.575 4.33333C163.533 4.33333 163.491 4.33333 163.449 4.33333C163.406 4.33333 163.364 4.33333 163.321 4.33333C163.278 4.33333 163.235 4.33333 163.192 4.33333C163.148 4.33333 163.105 4.33333 163.061 4.33333C163.018 4.33333 162.974 4.33333 162.93 4.33333C162.886 4.33333 162.842 4.33333 162.798 4.33333C162.753 4.33333 162.709 4.33333 162.664 4.33333C162.619 4.33333 162.574 4.33333 162.529 4.33333C162.484 4.33333 162.438 4.33333 162.393 4.33333C162.347 4.33333 162.302 4.33333 162.256 4.33333C162.21 4.33333 162.164 4.33333 162.117 4.33333C162.071 4.33333 162.024 4.33333 161.978 4.33333C161.931 4.33333 161.884 4.33333 161.837 4.33333C161.79 4.33333 161.742 4.33333 161.695 4.33333C161.647 4.33333 161.6 4.33333 161.552 4.33333C161.504 4.33333 161.456 4.33333 161.407 4.33333C161.359 4.33333 161.31 4.33333 161.262 4.33333C161.213 4.33333 161.164 4.33333 161.115 4.33333C161.066 4.33333 161.016 4.33333 160.967 4.33333C160.917 4.33333 160.868 4.33333 160.818 4.33333C160.768 4.33333 160.718 4.33333 160.667 4.33333C160.617 4.33333 160.566 4.33333 160.516 4.33333C160.465 4.33333 160.414 4.33333 160.363 4.33333C160.312 4.33333 160.26 4.33333 160.209 4.33333C160.157 4.33333 160.106 4.33333 160.054 4.33333C160.002 4.33333 159.949 4.33333 159.897 4.33333C159.845 4.33333 159.792 4.33333 159.739 4.33333C159.687 4.33333 159.634 4.33333 159.58 4.33333C159.527 4.33333 159.474 4.33333 159.42 4.33333C159.367 4.33333 159.313 4.33333 159.259 4.33333C159.205 4.33333 159.151 4.33333 159.096 4.33333C159.042 4.33333 158.987 4.33333 158.932 4.33333C158.877 4.33333 158.822 4.33333 158.767 4.33333C158.712 4.33333 158.656 4.33333 158.601 4.33333C158.545 4.33333 158.489 4.33333 158.433 4.33333C158.377 4.33333 158.321 4.33333 158.264 4.33333C158.208 4.33333 158.151 4.33333 158.094 4.33333C158.037 4.33333 157.98 4.33333 157.922 4.33333C157.865 4.33333 157.807 4.33333 157.75 4.33333C157.692 4.33333 157.634 4.33333 157.576 4.33333C157.518 4.33333 157.459 4.33333 157.4 4.33333C157.342 4.33333 157.283 4.33333 157.224 4.33333C157.165 4.33333 157.106 4.33333 157.046 4.33333C156.987 4.33333 156.927 4.33333 156.867 4.33333C156.807 4.33333 156.747 4.33333 156.687 4.33333C156.626 4.33333 156.566 4.33333 156.505 4.33333C156.444 4.33333 156.383 4.33333 156.322 4.33333C156.261 4.33333 156.2 4.33333 156.138 4.33333C156.076 4.33333 156.015 4.33333 155.952 4.33333C155.89 4.33333 155.828 4.33333 155.766 4.33333C155.703 4.33333 155.64 4.33333 155.578 4.33333C155.515 4.33333 155.451 4.33333 155.388 4.33333C155.325 4.33333 155.261 4.33333 155.197 4.33333C155.134 4.33333 155.07 4.33333 155.005 4.33333C154.941 4.33333 154.877 4.33333 154.812 4.33333C154.747 4.33333 154.682 4.33333 154.617 4.33333C154.552 4.33333 154.487 4.33333 154.421 4.33333C154.356 4.33333 154.29 4.33333 154.224 4.33333C154.158 4.33333 154.092 4.33333 154.025 4.33333C153.959 4.33333 153.892 4.33333 153.826 4.33333C153.759 4.33333 153.692 4.33333 153.624 4.33333C153.557 4.33333 153.489 4.33333 153.422 4.33333C153.354 4.33333 153.286 4.33333 153.218 4.33333C153.149 4.33333 153.081 4.33333 153.012 4.33333C152.944 4.33333 152.875 4.33333 152.806 4.33333C152.737 4.33333 152.667 4.33333 152.598 4.33333C152.528 4.33333 152.459 4.33333 152.389 4.33333C152.319 4.33333 152.248 4.33333 152.178 4.33333C152.107 4.33333 152.037 4.33333 151.966 4.33333C151.895 4.33333 151.824 4.33333 151.752 4.33333C151.681 4.33333 151.61 4.33333 151.538 4.33333C151.466 4.33333 151.394 4.33333 151.322 4.33333C151.249 4.33333 151.177 4.33333 151.104 4.33333C151.031 4.33333 150.958 4.33333 150.885 4.33333C150.812 4.33333 150.739 4.33333 150.665 4.33333C150.591 4.33333 150.518 4.33333 150.444 4.33333C150.369 4.33333 150.295 4.33333 150.221 4.33333C150.146 4.33333 150.071 4.33333 149.996 4.33333C149.921 4.33333 149.846 4.33333 149.771 4.33333C149.695 4.33333 149.619 4.33333 149.543 4.33333C149.467 4.33333 149.391 4.33333 149.315 4.33333C149.239 4.33333 149.162 4.33333 149.085 4.33333C149.008 4.33333 148.931 4.33333 148.854 4.33333C148.776 4.33333 148.699 4.33333 148.621 4.33333C148.543 4.33333 148.465 4.33333 148.387 4.33333C148.309 4.33333 148.23 4.33333 148.151 4.33333C148.073 4.33333 147.994 4.33333 147.915 4.33333C147.835 4.33333 147.756 4.33333 147.676 4.33333C147.597 4.33333 147.517 4.33333 147.437 4.33333C147.356 4.33333 147.276 4.33333 147.195 4.33333C147.115 4.33333 147.034 4.33333 146.953 4.33333C146.872 4.33333 146.79 4.33333 146.709 4.33333C146.627 4.33333 146.546 4.33333 146.464 4.33333C146.381 4.33333 146.299 4.33333 146.217 4.33333C146.134 4.33333 146.051 4.33333 145.968 4.33333C145.885 4.33333 145.802 4.33333 145.719 4.33333C145.635 4.33333 145.552 4.33333 145.468 4.33333C145.384 4.33333 145.3 4.33333 145.215 4.33333C145.131 4.33333 145.046 4.33333 144.961 4.33333C144.876 4.33333 144.791 4.33333 144.706 4.33333C144.62 4.33333 144.535 4.33333 144.449 4.33333C144.363 4.33333 144.277 4.33333 144.19 4.33333C144.104 4.33333 144.017 4.33333 143.931 4.33333C143.844 4.33333 143.757 4.33333 143.669 4.33333C143.582 4.33333 143.494 4.33333 143.407 4.33333C143.319 4.33333 143.231 4.33333 143.142 4.33333C143.054 4.33333 142.966 4.33333 142.877 4.33333C142.788 4.33333 142.699 4.33333 142.61 4.33333C142.52 4.33333 142.431 4.33333 142.341 4.33333C142.251 4.33333 142.161 4.33333 142.071 4.33333C141.981 4.33333 141.89 4.33333 141.799 4.33333C141.709 4.33333 141.618 4.33333 141.526 4.33333C141.435 4.33333 141.344 4.33333 141.252 4.33333C141.16 4.33333 141.068 4.33333 140.976 4.33333C140.884 4.33333 140.791 4.33333 140.698 4.33333C140.606 4.33333 140.513 4.33333 140.419 4.33333C140.326 4.33333 140.233 4.33333 140.139 4.33333C140.045 4.33333 139.951 4.33333 139.857 4.33333C139.763 4.33333 139.668 4.33333 139.573 4.33333C139.479 4.33333 139.384 4.33333 139.288 4.33333C139.193 4.33333 139.098 4.33333 139.002 4.33333C138.906 4.33333 138.81 4.33333 138.714 4.33333C138.618 4.33333 138.521 4.33333 138.424 4.33333C138.328 4.33333 138.231 4.33333 138.133 4.33333C138.036 4.33333 137.939 4.33333 137.841 4.33333C137.743 4.33333 137.645 4.33333 137.547 4.33333C137.448 4.33333 137.35 4.33333 137.251 4.33333C137.152 4.33333 137.053 4.33333 136.954 4.33333C136.855 4.33333 136.755 4.33333 136.655 4.33333C136.555 4.33333 136.455 4.33333 136.355 4.33333C136.255 4.33333 136.154 4.33333 136.053 4.33333C135.953 4.33333 135.851 4.33333 135.75 4.33333C135.649 4.33333 135.547 4.33333 135.445 4.33333C135.343 4.33333 135.241 4.33333 135.139 4.33333C135.037 4.33333 134.934 4.33333 134.831 4.33333C134.728 4.33333 134.625 4.33333 134.522 4.33333C134.418 4.33333 134.314 4.33333 134.21 4.33333C134.107 4.33333 134.002 4.33333 133.898 4.33333C133.793 4.33333 133.689 4.33333 133.584 4.33333C133.479 4.33333 133.374 4.33333 133.268 4.33333C133.163 4.33333 133.057 4.33333 132.951 4.33333C132.845 4.33333 132.738 4.33333 132.632 4.33333C132.525 4.33333 132.419 4.33333 132.311 4.33333C132.204 4.33333 132.097 4.33333 131.989 4.33333C131.882 4.33333 131.774 4.33333 131.666 4.33333C131.558 4.33333 131.449 4.33333 131.341 4.33333C131.232 4.33333 131.123 4.33333 131.014 4.33333C130.905 4.33333 130.795 4.33333 130.686 4.33333C130.576 4.33333 130.466 4.33333 130.356 4.33333C130.246 4.33333 130.135 4.33333 130.024 4.33333C129.913 4.33333 129.802 4.33333 129.691 4.33333C129.58 4.33333 129.468 4.33333 129.356 4.33333C129.245 4.33333 129.132 4.33333 129.02 4.33333C128.908 4.33333 128.795 4.33333 128.682 4.33333C128.569 4.33333 128.456 4.33333 128.343 4.33333C128.229 4.33333 128.115 4.33333 128.002 4.33333C127.888 4.33333 127.773 4.33333 127.659 4.33333C127.544 4.33333 127.429 4.33333 127.314 4.33333C127.199 4.33333 127.084 4.33333 126.968 4.33333C126.853 4.33333 126.737 4.33333 126.621 4.33333C126.505 4.33333 126.388 4.33333 126.272 4.33333C126.155 4.33333 126.038 4.33333 125.921 4.33333C125.803 4.33333 125.686 4.33333 125.568 4.33333C125.45 4.33333 125.332 4.33333 125.214 4.33333C125.096 4.33333 124.977 4.33333 124.858 4.33333C124.739 4.33333 124.62 4.33333 124.501 4.33333C124.381 4.33333 124.262 4.33333 124.142 4.33333C124.022 4.33333 123.902 4.33333 123.781 4.33333C123.66 4.33333 123.54 4.33333 123.419 4.33333C123.298 4.33333 123.176 4.33333 123.055 4.33333C122.933 4.33333 122.811 4.33333 122.689 4.33333C122.567 4.33333 122.444 4.33333 122.322 4.33333C122.199 4.33333 122.076 4.33333 121.953 4.33333C121.829 4.33333 121.706 4.33333 121.582 4.33333C121.458 4.33333 121.334 4.33333 121.21 4.33333C121.085 4.33333 120.961 4.33333 120.836 4.33333C120.711 4.33333 120.585 4.33333 120.46 4.33333C120.334 4.33333 120.209 4.33333 120.083 4.33333C119.957 4.33333 119.83 4.33333 119.704 4.33333C119.577 4.33333 119.45 4.33333 119.323 4.33333C119.196 4.33333 119.068 4.33333 118.94 4.33333C118.813 4.33333 118.685 4.33333 118.556 4.33333C118.428 4.33333 118.299 4.33333 118.171 4.33333C118.042 4.33333 117.913 4.33333 117.783 4.33333C117.654 4.33333 117.524 4.33333 117.394 4.33333C117.264 4.33333 117.134 4.33333 117.003 4.33333C116.872 4.33333 116.742 4.33333 116.61 4.33333C116.479 4.33333 116.348 4.33333 116.216 4.33333C116.084 4.33333 115.952 4.33333 115.82 4.33333C115.688 4.33333 115.555 4.33333 115.422 4.33333C115.29 4.33333 115.156 4.33333 115.023 4.33333C114.89 4.33333 114.756 4.33333 114.622 4.33333C114.488 4.33333 114.354 4.33333 114.219 4.33333C114.084 4.33333 113.95 4.33333 113.814 4.33333C113.679 4.33333 113.544 4.33333 113.408 4.33333C113.272 4.33333 113.136 4.33333 113 4.33333C112.864 4.33333 112.727 4.33333 112.59 4.33333C112.453 4.33333 112.316 4.33333 112.179 4.33333C112.041 4.33333 111.904 4.33333 111.766 4.33333C111.627 4.33333 111.489 4.33333 111.35 4.33333C111.212 4.33333 111.073 4.33333 110.934 4.33333C110.795 4.33333 110.655 4.33333 110.515 4.33333C110.375 4.33333 110.235 4.33333 110.095 4.33333C109.955 4.33333 109.814 4.33333 109.673 4.33333C109.532 4.33333 109.391 4.33333 109.249 4.33333C109.108 4.33333 108.966 4.33333 108.824 4.33333C108.682 4.33333 108.539 4.33333 108.396 4.33333C108.254 4.33333 108.111 4.33333 107.967 4.33333C107.824 4.33333 107.681 4.33333 107.537 4.33333C107.393 4.33333 107.249 4.33333 107.104 4.33333C106.96 4.33333 106.815 4.33333 106.67 4.33333C106.525 4.33333 106.379 4.33333 106.234 4.33333C106.088 4.33333 105.942 4.33333 105.796 4.33333C105.649 4.33333 105.503 4.33333 105.356 4.33333C105.209 4.33333 105.062 4.33333 104.914 4.33333C104.767 4.33333 104.619 4.33333 104.471 4.33333C104.323 4.33333 104.175 4.33333 104.026 4.33333C103.877 4.33333 103.728 4.33333 103.579 4.33333C103.43 4.33333 103.28 4.33333 103.13 4.33333C102.981 4.33333 102.83 4.33333 102.68 4.33333C102.53 4.33333 102.379 4.33333 102.228 4.33333C102.077 4.33333 101.925 4.33333 101.774 4.33333C101.622 4.33333 101.47 4.33333 101.318 4.33333C101.166 4.33333 101.013 4.33333 100.86 4.33333C100.707 4.33333 100.554 4.33333 100.401 4.33333C100.247 4.33333 100.093 4.33333 99.9392 4.33333C99.7851 4.33333 99.6307 4.33333 99.476 4.33333C99.3213 4.33333 99.1663 4.33333 99.011 4.33333C98.8557 4.33333 98.7001 4.33333 98.5442 4.33333C98.3883 4.33333 98.2321 4.33333 98.0756 4.33333C97.919 4.33333 97.7622 4.33333 97.6051 4.33333C97.4479 4.33333 97.2905 4.33333 97.1327 4.33333C96.975 4.33333 96.8169 4.33333 96.6586 4.33333C96.5002 4.33333 96.3416 4.33333 96.1826 4.33333C96.0236 4.33333 95.8643 4.33333 95.7047 4.33333C95.5451 4.33333 95.3852 4.33333 95.225 4.33333C95.0648 4.33333 94.9043 4.33333 94.7435 4.33333C94.5826 4.33333 94.4215 4.33333 94.26 4.33333C94.0986 4.33333 93.9368 4.33333 93.7748 4.33333C93.6127 4.33333 93.4503 4.33333 93.2876 4.33333C93.125 4.33333 92.962 4.33333 92.7987 4.33333C92.6353 4.33333 92.4717 4.33333 92.3078 4.33333C92.1439 4.33333 91.9796 4.33333 91.8151 4.33333C91.6505 4.33333 91.4856 4.33333 91.3205 4.33333C91.1553 4.33333 90.9898 4.33333 90.824 4.33333C90.6582 4.33333 90.4921 4.33333 90.3256 4.33333C90.1592 4.33333 89.9924 4.33333 89.8254 4.33333C89.6583 4.33333 89.4909 4.33333 89.3233 4.33333C89.1556 4.33333 88.9876 4.33333 88.8192 4.33333C88.6509 4.33333 88.4823 4.33333 88.3133 4.33333C88.1444 4.33333 87.9751 4.33333 87.8055 4.33333C87.636 4.33333 87.4661 4.33333 87.2958 4.33333C87.1256 4.33333 86.9551 4.33333 86.7842 4.33333C86.6134 4.33333 86.4422 4.33333 86.2707 4.33333C86.0993 4.33333 85.9275 4.33333 85.7553 4.33333C85.5832 4.33333 85.4108 4.33333 85.238 4.33333C85.0653 4.33333 84.8922 4.33333 84.7188 4.33333C84.5454 4.33333 84.3717 4.33333 84.1977 4.33333C84.0236 4.33333 83.8493 4.33333 83.6746 4.33333C83.4999 4.33333 83.3249 4.33333 83.1496 4.33333C82.9743 4.33333 82.7987 4.33333 82.6227 4.33333C82.4468 4.33333 82.2705 4.33333 82.0939 4.33333C81.9173 4.33333 81.7404 4.33333 81.5632 4.33333C81.3859 4.33333 81.2084 4.33333 81.0305 4.33333C80.8526 4.33333 80.6744 4.33333 80.4958 4.33333C80.3173 4.33333 80.1385 4.33333 79.9593 4.33333C79.7801 4.33333 79.6006 4.33333 79.4208 4.33333C79.241 4.33333 79.0608 4.33333 78.8803 4.33333C78.6999 4.33333 78.5191 4.33333 78.3379 4.33333C78.1568 4.33333 77.9754 4.33333 77.7936 4.33333C77.6118 4.33333 77.4297 4.33333 77.2473 4.33333C77.0649 4.33333 76.8821 4.33333 76.699 4.33333C76.516 4.33333 76.3326 4.33333 76.1488 4.33333C75.9651 4.33333 75.781 4.33333 75.5967 4.33333C75.4123 4.33333 75.2276 4.33333 75.0425 4.33333C74.8575 4.33333 74.6721 4.33333 74.4864 4.33333C74.3007 4.33333 74.1147 4.33333 73.9283 4.33333C73.742 4.33333 73.5553 4.33333 73.3683 4.33333C73.1813 4.33333 72.9939 4.33333 72.8062 4.33333C72.6186 4.33333 72.4306 4.33333 72.2422 4.33333C72.0539 4.33333 71.8652 4.33333 71.6763 4.33333C71.4873 4.33333 71.2979 4.33333 71.1083 4.33333C70.9186 4.33333 70.7286 4.33333 70.5383 4.33333C70.348 4.33333 70.1573 4.33333 69.9663 4.33333C69.7754 4.33333 69.584 4.33333 69.3924 4.33333C69.2007 4.33333 69.0088 4.33333 68.8164 4.33333C68.6241 4.33333 68.4315 4.33333 68.2385 4.33333C68.0455 4.33333 67.8522 4.33333 67.6585 4.33333C67.4649 4.33333 67.2709 4.33333 67.0766 4.33333C66.8823 4.33333 66.6876 4.33333 66.4926 4.33333C66.2976 4.33333 66.1023 4.33333 65.9066 4.33333C65.711 4.33333 65.515 4.33333 65.3186 4.33333C65.1223 4.33333 64.9256 4.33333 64.7286 4.33333C64.5316 4.33333 64.3342 4.33333 64.1366 4.33333C63.9389 4.33333 63.7409 4.33333 63.5425 4.33333C63.3441 4.33333 63.1454 4.33333 62.9464 4.33333C62.7474 4.33333 62.548 4.33333 62.3483 4.33333C62.1486 4.33333 61.9485 4.33333 61.7481 4.33333C61.5477 4.33333 61.347 4.33333 61.1459 4.33333C60.9449 4.33333 60.7435 4.33333 60.5417 4.33333C60.34 4.33333 60.1379 4.33333 59.9354 4.33333C59.733 4.33333 59.5302 4.33333 59.3271 4.33333C59.124 4.33333 58.9206 4.33333 58.7168 4.33333C58.513 4.33333 58.3088 4.33333 58.1043 4.33333C57.8999 4.33333 57.695 4.33333 57.4899 4.33333C57.2847 4.33333 57.0792 4.33333 56.8733 4.33333C56.6675 4.33333 56.4613 4.33333 56.2548 4.33333C56.0482 4.33333 55.8413 4.33333 55.6341 4.33333C55.4269 4.33333 55.2193 4.33333 55.0114 4.33333C54.8035 4.33333 54.5952 4.33333 54.3866 4.33333C54.178 4.33333 53.969 4.33333 53.7597 4.33333C53.5504 4.33333 53.3408 4.33333 53.1308 4.33333C52.9208 4.33333 52.7105 4.33333 52.4998 4.33333C52.2891 4.33333 52.0781 4.33333 51.8667 4.33333C51.6553 4.33333 51.4436 4.33333 51.2315 4.33333C51.0195 4.33333 50.807 4.33333 50.5943 4.33333C50.3815 4.33333 50.1684 4.33333 49.9549 4.33333C49.7415 4.33333 49.5276 4.33333 49.3135 4.33333C49.0993 4.33333 48.8848 4.33333 48.6699 4.33333C48.4551 4.33333 48.2399 4.33333 48.0243 4.33333C47.8087 4.33333 47.5928 4.33333 47.3766 4.33333C47.1603 4.33333 46.9437 4.33333 46.7267 4.33333C46.5098 4.33333 46.2924 4.33333 46.0748 4.33333C45.8571 4.33333 45.6391 4.33333 45.4207 4.33333C45.2023 4.33333 44.9836 4.33333 44.7645 4.33333C44.5455 4.33333 44.326 4.33333 44.1062 4.33333C43.8865 4.33333 43.6663 4.33333 43.4458 4.33333C43.2253 4.33333 43.0045 4.33333 42.7833 4.33333C42.5621 4.33333 42.3405 4.33333 42.1186 4.33333C41.8967 4.33333 41.6745 4.33333 41.4518 4.33333C41.2292 4.33333 41.0063 4.33333 40.7829 4.33333C40.5596 4.33333 40.3359 4.33333 40.1119 4.33333C39.8878 4.33333 39.6634 4.33333 39.4387 4.33333C39.2139 4.33333 38.9888 4.33333 38.7634 4.33333C38.5379 4.33333 38.3121 4.33333 38.0859 4.33333C37.8597 4.33333 37.6332 4.33333 37.4063 4.33333C37.1794 4.33333 36.9521 4.33333 36.7245 4.33333C36.4969 4.33333 36.2689 4.33333 36.0406 4.33333C35.8122 4.33333 35.5836 4.33333 35.3545 4.33333C35.1254 4.33333 34.896 4.33333 34.6663 4.33333C34.4365 4.33333 34.2064 4.33333 33.9759 4.33333C33.7454 4.33333 33.5145 4.33333 33.2833 4.33333C33.0521 4.33333 32.8205 4.33333 32.5886 4.33333C32.3567 4.33333 32.1244 4.33333 31.8917 4.33333C31.659 4.33333 31.426 4.33333 31.1926 4.33333C30.9592 4.33333 30.7255 4.33333 30.4914 4.33333C30.2573 4.33333 30.0228 4.33333 29.788 4.33333C29.5531 4.33333 29.3179 4.33333 29.0824 4.33333C28.8468 4.33333 28.6109 4.33333 28.3746 4.33333C28.1383 4.33333 27.9016 4.33333 27.6646 4.33333C27.4276 4.33333 27.1902 4.33333 26.9524 4.33333C26.7147 4.33333 26.4766 4.33333 26.2381 4.33333C25.9996 4.33333 25.7607 4.33333 25.5215 4.33333C25.2823 4.33333 25.0427 4.33333 24.8028 4.33333C24.5628 4.33333 24.3225 4.33333 24.0818 4.33333C23.8411 4.33333 23.6001 4.33333 23.3586 4.33333C23.1172 4.33333 22.8754 4.33333 22.6333 4.33333C22.3911 4.33333 22.1486 4.33333 21.9057 4.33333C21.6628 4.33333 21.4195 4.33333 21.1759 4.33333C20.9322 4.33333 20.6882 4.33333 20.4439 4.33333C20.1995 4.33333 19.9547 4.33333 19.7096 4.33333C19.4645 4.33333 19.219 4.33333 18.9732 4.33333C18.7273 4.33333 18.4811 4.33333 18.2345 4.33333C17.9879 4.33333 17.7409 4.33333 17.4936 4.33333C17.2462 4.33333 16.9985 4.33333 16.7504 4.33333C16.5023 4.33333 16.2539 4.33333 16.005 4.33333C15.7562 4.33333 15.507 4.33333 15.2574 4.33333C15.0078 4.33333 14.7579 4.33333 14.5076 4.33333C14.2572 4.33333 14.0065 4.33333 13.7554 4.33333C13.5044 4.33333 13.2529 4.33333 13.0011 4.33333C12.7493 4.33333 12.4971 4.33333 12.2445 4.33333C11.9919 4.33333 11.739 4.33333 11.4856 4.33333C11.2323 4.33333 10.9786 4.33333 10.7245 4.33333C10.4704 4.33333 10.216 4.33333 9.96116 4.33333C9.70632 4.33333 9.45111 4.33333 9.19552 4.33333C8.93994 4.33333 8.68397 4.33333 8.42763 4.33333C8.17128 4.33333 7.91456 4.33333 7.65746 4.33333C7.40036 4.33333 7.14289 4.33333 6.88503 4.33333C6.62717 4.33333 6.36893 4.33333 6.11032 4.33333C5.8517 4.33333 5.59271 4.33333 5.33333 4.33333V5.33333Z" fill="var(--stroke-0, #04316A)"/>
</svg>
