<svg preserveAspectRatio="none" width="100%" height="100%" overflow="visible" style="display: block;" viewBox="0 0 1407 97" fill="none" xmlns="http://www.w3.org/2000/svg">
<g id="&#208;&#173;&#208;&#187;&#208;&#181;&#208;&#186;&#209;&#130;&#209;&#128;&#208;&#190;&#209;&#130;&#208;&#181;&#209;&#133;&#208;&#189;&#208;&#184;&#208;&#186;&#208;&#176;">
<path d="M78.4318 39.4639V59.3802H34.0327V39.4639H78.4318ZM0.19559 63.8061H26.9915C26.8611 68.4163 28.2465 71.8126 31.1478 73.9948C34.0816 76.177 38.1075 77.2681 43.2255 77.2681C47.9849 77.2681 51.6033 76.3921 54.0808 74.6402C56.5908 72.8576 58.3023 70.076 59.215 66.2956C60.1604 62.4845 60.633 57.5361 60.633 51.4506V45.7338C60.633 39.7712 60.0952 34.8997 59.0194 31.1193C57.9437 27.3389 56.1834 24.5574 53.7385 22.7747C51.2936 20.9921 47.9849 20.1008 43.8123 20.1008C39.2485 20.1008 35.7442 20.6694 33.2993 21.8066C30.8544 22.9438 29.1756 24.5727 28.2628 26.6934C27.3501 28.8142 26.8611 31.3498 26.7959 34.3004H0C0.651968 27.9689 2.65677 22.2061 6.01441 17.0119C9.37204 11.8176 14.1803 7.68378 20.4392 4.61027C26.6981 1.53676 34.4891 0 43.8123 0C52.5486 0 60.1441 1.85947 66.5985 5.57842C73.0856 9.26663 78.1058 14.5531 81.659 21.4377C85.2448 28.2917 87.0378 36.4518 87.0378 45.9182V51.4506C87.0378 60.917 85.31 69.0618 81.8546 75.885C78.3992 82.6774 73.4116 87.9024 66.8919 91.5599C60.3723 95.1866 52.4834 97 43.2255 97C34.8151 97 27.4316 95.6477 21.0749 92.943C14.7508 90.2075 9.76322 86.3656 6.1122 81.4173C2.49378 76.4382 0.521574 70.5678 0.19559 63.8061Z" fill="var(--fill-0, #C8D1DF)"/>
<path d="M98.9233 95.7091V75.9772L101.662 75.6084C104.987 75.1166 107.741 73.7643 109.925 71.5513C112.142 69.3077 113.837 65.7578 115.011 60.9016C116.217 56.0147 116.983 49.3606 117.309 40.9392L118.874 1.29088H191.438V95.7091H165.228V21.2072H143.909L142.344 50.8973C141.758 61.9005 140.193 70.6754 137.65 77.222C135.108 83.7685 131.245 88.4864 126.061 91.3755C120.878 94.2646 114.049 95.7091 105.573 95.7091H98.9233Z" fill="var(--fill-0, #C8D1DF)"/>
<path d="M207.064 95.7091V1.29088H279.237V21.9449H234.251V38.173H275.52V58.827H234.251V75.0551H279.041V95.7091H207.064Z" fill="var(--fill-0, #C8D1DF)"/>
<path d="M357.183 95.7091L326.475 57.5361H322.661V95.7091H295.474V1.29088H322.661V36.8821H326.182L354.934 1.29088H389.162L351.022 46.6559L391.313 95.7091H357.183Z" fill="var(--fill-0, #C8D1DF)"/>
<path d="M398.627 21.9449V1.29088H485.665V21.9449H455.544V95.7091H428.748V21.9449H398.627Z" fill="var(--fill-0, #C8D1DF)"/>
<path d="M498.65 95.7091V1.29088H541.876C549.308 1.29088 555.812 2.67396 561.386 5.44012C566.96 8.20627 571.296 12.0943 574.393 17.1041C577.49 22.1139 579.038 27.9689 579.038 34.6692C579.038 41.4309 577.441 47.286 574.246 52.2343C571.084 57.1827 566.634 60.9938 560.897 63.6678C555.192 66.3417 548.526 67.6787 540.898 67.6787H515.08V47.7624H535.422C538.616 47.7624 541.338 47.2399 543.587 46.1949C545.869 45.1191 547.613 43.5978 548.819 41.6307C550.058 39.6637 550.678 37.3432 550.678 34.6692C550.678 31.9645 550.058 29.6594 548.819 27.7538C547.613 25.8175 545.869 24.3422 543.587 23.3279C541.338 22.283 538.616 21.7605 535.422 21.7605H525.838V95.7091H498.65Z" fill="var(--fill-0, #C8D1DF)"/>
<path d="M688.78 48.5C688.78 59.0114 686.612 67.8785 682.277 75.1012C677.941 82.2932 672.09 87.7487 664.722 91.4677C657.355 95.1559 649.14 97 640.078 97C630.951 97 622.703 95.1405 615.336 91.4216C608.001 87.6719 602.166 82.201 597.831 75.009C593.528 67.7863 591.376 58.9499 591.376 48.5C591.376 37.9886 593.528 29.1369 597.831 21.9449C602.166 14.7221 608.001 9.26663 615.336 5.57842C622.703 1.85947 630.951 0 640.078 0C649.14 0 657.355 1.85947 664.722 5.57842C672.09 9.26663 677.941 14.7221 682.277 21.9449C686.612 29.1369 688.78 37.9886 688.78 48.5ZM660.811 48.5C660.811 42.8447 660.012 38.0808 658.415 34.2082C656.85 30.3048 654.519 27.3542 651.422 25.3565C648.358 23.3279 644.577 22.3137 640.078 22.3137C635.579 22.3137 631.782 23.3279 628.685 25.3565C625.621 27.3542 623.29 30.3048 621.693 34.2082C620.128 38.0808 619.345 42.8447 619.345 48.5C619.345 54.1553 620.128 58.9346 621.693 62.8379C623.29 66.7106 625.621 69.6611 628.685 71.6896C631.782 73.6874 635.579 74.6863 640.078 74.6863C644.577 74.6863 648.358 73.6874 651.422 71.6896C654.519 69.6611 656.85 66.7106 658.415 62.8379C660.012 58.9346 660.811 54.1553 660.811 48.5Z" fill="var(--fill-0, #C8D1DF)"/>
<path d="M696.668 21.9449V1.29088H783.706V21.9449H753.585V95.7091H726.789V21.9449H696.668Z" fill="var(--fill-0, #C8D1DF)"/>
<path d="M796.692 95.7091V1.29088H868.865V21.9449H823.879V38.173H865.148V58.827H823.879V75.0551H868.669V95.7091H796.692Z" fill="var(--fill-0, #C8D1DF)"/>
<path d="M914.245 1.29088L930.675 28.7681H931.457L948.082 1.29088H978.399L948.473 48.5L979.572 95.7091H948.473L931.457 67.6787H930.675L913.658 95.7091H882.755L913.463 48.5L883.733 1.29088H914.245Z" fill="var(--fill-0, #C8D1DF)"/>
<path d="M992.876 95.7091V1.29088H1020.06V38.173H1056.05V1.29088H1083.24V95.7091H1056.05V58.827H1020.06V95.7091H992.876Z" fill="var(--fill-0, #C8D1DF)"/>
<path d="M1098.9 1.29088H1126.09V50.7129H1126.87L1162.47 1.29088H1185.55V95.7091H1158.36V46.1027H1157.77L1121.59 95.7091H1098.9V1.29088Z" fill="var(--fill-0, #C8D1DF)"/>
<path d="M1262.87 95.7091L1232.16 57.5361H1228.35V95.7091H1201.16V1.29088H1228.35V36.8821H1231.87L1260.62 1.29088H1294.85L1256.71 46.6559L1297 95.7091H1262.87Z" fill="var(--fill-0, #C8D1DF)"/>
<path d="M1333.07 95.7091H1303.73L1336.78 1.29088H1373.95L1407 95.7091H1377.66L1355.76 27.2928H1354.97L1333.07 95.7091ZM1327.59 58.4582H1382.75V77.6369H1327.59V58.4582Z" fill="var(--fill-0, #C8D1DF)"/>
</g>
</svg>
