<svg preserveAspectRatio="none" width="100%" height="100%" overflow="visible" style="display: block;" viewBox="0 0 1581 1975.15" fill="none" xmlns="http://www.w3.org/2000/svg">
<g id="scale-1.svg">
<path id="Vector" opacity="0.469043" d="M100.064 1685.4L1580.51 204.961" stroke="var(--stroke-0, white)" stroke-opacity="0.42" stroke-width="1.39664"/>
<path id="Vector_2" opacity="0.469043" d="M798.181 1975.15V0" stroke="var(--stroke-0, white)" stroke-opacity="0.42" stroke-width="1.39664"/>
<path id="Vector_3" opacity="0.469043" d="M1498.11 1686.39L0.902821 189.189" stroke="var(--stroke-0, white)" stroke-opacity="0.42" stroke-width="1.39664"/>
<path id="Vector_4" opacity="0.469043" d="M798.88 1358.38C1005.21 1358.38 1172.48 1191.12 1172.48 984.783C1172.48 778.448 1005.21 611.181 798.88 611.181C592.545 611.181 425.278 778.448 425.278 984.783C425.278 1191.12 592.545 1358.38 798.88 1358.38Z" stroke="var(--stroke-0, white)" stroke-opacity="0.42" stroke-width="1.39664" stroke-dasharray="5.59 5.59"/>
<path id="Vector_5" opacity="0.469043" d="M798.88 1301.12C973.589 1301.12 1115.22 1159.49 1115.22 984.783C1115.22 810.073 973.589 668.443 798.88 668.443C624.17 668.443 482.54 810.073 482.54 984.783C482.54 1159.49 624.17 1301.12 798.88 1301.12Z" stroke="var(--stroke-0, white)" stroke-opacity="0.42" stroke-width="1.39664" stroke-dasharray="5.59 5.59"/>
<path id="Vector_6" opacity="0.469043" d="M798.88 1179.61C906.482 1179.61 993.712 1092.38 993.712 984.781C993.712 877.179 906.482 789.95 798.88 789.95C691.277 789.95 604.048 877.179 604.048 984.781C604.048 1092.38 691.277 1179.61 798.88 1179.61Z" stroke="var(--stroke-0, white)" stroke-opacity="0.42" stroke-width="1.39664" stroke-dasharray="5.59 5.59"/>
</g>
</svg>
