<svg preserveAspectRatio="none" width="100%" height="100%" overflow="visible" style="display: block;" viewBox="0 0 12 12" fill="none" xmlns="http://www.w3.org/2000/svg">
<g id="plus">
<path id="Vector" d="M6.5 1.7575C6.5 1.62489 6.44732 1.49771 6.35355 1.40395C6.25978 1.31018 6.13261 1.2575 6 1.2575C5.86739 1.2575 5.74021 1.31018 5.64645 1.40395C5.55268 1.49771 5.5 1.62489 5.5 1.7575V5.5H1.7575C1.62489 5.5 1.49771 5.55268 1.40395 5.64645C1.31018 5.74021 1.2575 5.86739 1.2575 6C1.2575 6.13261 1.31018 6.25978 1.40395 6.35355C1.49771 6.44732 1.62489 6.5 1.7575 6.5H5.5V10.2425C5.5 10.3751 5.55268 10.5023 5.64645 10.5961C5.74021 10.6898 5.86739 10.7425 6 10.7425C6.13261 10.7425 6.25978 10.6898 6.35355 10.5961C6.44732 10.5023 6.5 10.3751 6.5 10.2425V6.5H10.2425C10.3751 6.5 10.5023 6.44732 10.5961 6.35355C10.6898 6.25978 10.7425 6.13261 10.7425 6C10.7425 5.86739 10.6898 5.74021 10.5961 5.64645C10.5023 5.55268 10.3751 5.5 10.2425 5.5H6.5V1.7575Z" fill="var(--fill-0, #264B82)"/>
</g>
</svg>
