<svg width="1581" height="1976" viewBox="0 0 1581 1976" fill="none" xmlns="http://www.w3.org/2000/svg">
<path opacity="0.469043" d="M100.064 1685.4L1580.51 204.961" stroke="white" stroke-opacity="0.42" stroke-width="1.39664"/>
<path opacity="0.469043" d="M798.182 1975.15V0" stroke="white" stroke-opacity="0.42" stroke-width="1.39664"/>
<path opacity="0.469043" d="M1498.11 1686.39L0.902344 189.189" stroke="white" stroke-opacity="0.42" stroke-width="1.39664"/>
<path opacity="0.469043" d="M798.879 1358.38C1005.21 1358.38 1172.48 1191.12 1172.48 984.783C1172.48 778.448 1005.21 611.181 798.879 611.181C592.545 611.181 425.277 778.448 425.277 984.783C425.277 1191.12 592.545 1358.38 798.879 1358.38Z" stroke="white" stroke-opacity="0.42" stroke-width="1.39664" stroke-dasharray="5.59 5.59"/>
<path opacity="0.469043" d="M798.881 1301.12C973.59 1301.12 1115.22 1159.49 1115.22 984.783C1115.22 810.073 973.59 668.443 798.881 668.443C624.171 668.443 482.541 810.073 482.541 984.783C482.541 1159.49 624.171 1301.12 798.881 1301.12Z" stroke="white" stroke-opacity="0.42" stroke-width="1.39664" stroke-dasharray="5.59 5.59"/>
<path opacity="0.469043" d="M798.881 1179.61C906.483 1179.61 993.712 1092.38 993.712 984.781C993.712 877.179 906.483 789.95 798.881 789.95C691.278 789.95 604.049 877.179 604.049 984.781C604.049 1092.38 691.278 1179.61 798.881 1179.61Z" stroke="white" stroke-opacity="0.42" stroke-width="1.39664" stroke-dasharray="5.59 5.59"/>
</svg>
